<svg xmlns="http://www.w3.org/2000/svg" version="1.1" xmlns:xlink="http://www.w3.org/1999/xlink" xmlns:svgjs="http://svgjs.dev/svgjs" width="447" height="414"><svg id="SvgjsSvg1010" data-name="Layer 2" xmlns="http://www.w3.org/2000/svg" viewBox="0 0 447 414">
  <defs>
    <style>
      .cls-1 {
        fill: #2f1b1a;
      }
    </style>
  </defs>
  <g id="SvgjsG1009" data-name="Layer 1">
    <g>
      <path class="cls-1" d="M106.35,149.47v-2.9c-.62,0-1.2-.02-1.75-.07-.55-.04-1.2-.11-1.94-.2-3.44,0-6.91-.4-10.42-1.19-3.5-.79-6.67-2.02-9.5-3.7-2.83-1.67-5.1-3.83-6.82-6.47-1.72-2.64-2.58-5.85-2.58-9.63,0-11,5.96-18.46,17.88-22.37,11.92-3.91,30.42-5.87,55.5-5.87h70.25v33h-63.05c-14.26,0-21.39,3.12-21.39,9.37.12,6.34,7.56,9.68,22.31,10.03h70.5c10.45,0,18.71-2.55,24.8-7.65,6.08-5.1,9.13-12.01,9.13-20.72v-24.02h63.61v24.02c0,16.54-10.08,25.03-30.24,25.47v2.9h145.62C411.33,63.14,325.38,0,223.5,0S35.67,63.14,8.76,149.47h97.59Z"></path>
      <path class="cls-1" d="M445.48,182.86h-131.09v70.87c0,6.78,2.58,11.24,7.74,13.4,5.16,2.16,11.92,3.23,20.28,3.23,10.45,0,25.38-.04,44.8-.13v35.77h-65.08c-28.15,0-47.08-3.3-56.79-9.9-9.71-6.6-14.56-17.6-14.56-33v-80.24h-102.39v123.14h-63.42v-123.14H1.9v-2.9c-1.25,8.85-1.9,17.88-1.9,27.04,0,114.32,100.06,207,223.5,207s223.5-92.68,223.5-207c0-8.17-.53-16.22-1.52-24.14Z"></path>
    </g>
  </g>
</svg><style>@media (prefers-color-scheme: light) { :root { filter: none; } }
@media (prefers-color-scheme: dark) { :root { filter: none; } }
</style></svg>