<?xml version="1.0" encoding="UTF-8"?>
<svg id="Layer_1" data-name="Layer 1" xmlns="http://www.w3.org/2000/svg" viewBox="0 0 1973.1 203.04">
  <path d="M105.24,8.51c39.75,0,70.78,5.32,95.14,10.89l2.31,44.51c-28.72-8.71-59.5-13.79-91.04-13.79s-43.6,5.32-43.6,14.51c0,30.48,145.15-3.87,145.15,75.71,0,40.15-36.67,61.2-101.81,61.2-40.52,0-76.17-7.74-107.2-19.83l-2.56-47.41c30.01,14.51,64.37,22.98,102.07,22.98,30.26,0,42.57-6.05,42.57-15.72,0-32.17-144.64,1.45-144.38-77.89C2.15,26.17,36.77,8.51,105.24,8.51Z" style="fill: #bebde2; stroke: #bebde2; stroke-miterlimit: 10; stroke-width: 3px;"/>
  <path d="M284.17,1.5v41.61h-57.96V1.5h57.96ZM286.74,59.07v136.91h-60.52V59.07h60.52Z" style="fill: #bebde2; stroke: #bebde2; stroke-miterlimit: 10; stroke-width: 3px;"/>
  <path d="M293.05,64.15h28.47v-3.14c0-34.35,26.93-58.78,82.84-58.78,20,0,34.88,2.18,49.5,6.29l2.82,39.91c-12.05-4.35-24.88-6.29-38.98-6.29-23.34,0-35.9,6.29-35.9,20.08v1.94h58.98v37.49h-58.98v94.34h-60.27v-94.34h-28.47v-37.49Z" style="fill: #bebde2; stroke: #bebde2; stroke-miterlimit: 10; stroke-width: 3px;"/>
  <path d="M545.53,117.85h6.41v-2.66c0-15.24-13.59-23.71-40.78-23.71-17.95,0-34.11,2.66-59.24,10.16v-35.8c18.72-7.26,44.88-12.09,71.29-12.09,56.42,0,87.45,23.46,87.45,66.52v75.71h-56.93v-26.85c-15.13,20.32-37.7,32.41-65.14,32.41-29.75,0-48.47-14.27-48.47-37.25,0-30.48,32.06-46.44,105.4-46.44ZM512.96,169.37c11.03,0,23.85-4.11,38.98-16.45v-13.3h-5.39c-38.21,0-52.06,5.56-52.06,17.17,0,8.47,7.44,12.58,18.46,12.58Z" style="fill: #bebde2; stroke: #bebde2; stroke-miterlimit: 10; stroke-width: 3px;"/>
  <path d="M639.01,97.29h-25.39v-38.22h26.41v-22.5l57.7-24.67v47.17h62.32v38.22h-62.32v32.9c0,22.25,15.13,31.69,40.26,31.69,8.72,0,18.72-.97,29.24-4.11l-6.16,36.04c-14.36,5.08-31.8,7.74-48.21,7.74-43.6,0-73.86-19.11-73.86-53.94v-50.31Z" style="fill: #bebde2; stroke: #bebde2; stroke-miterlimit: 10; stroke-width: 3px;"/>
  <path d="M859.56,14.56h140.79c45.65,0,70.78,18.63,70.78,47.65,0,22.5-15.9,38.46-44.37,40.64,32.06.48,51.55,19.35,51.55,45.72,0,29.03-23.34,47.41-66.17,47.41h-152.59V14.56ZM1007.79,69.96c0-13.06-10-18.38-29.75-18.38h-58.21v35.56h59.24c18.98,0,28.72-5.08,28.72-17.17ZM1014.97,140.83c0-13.3-11.8-19.35-34.88-19.35h-60.27v37.01h71.81c14.62,0,23.34-5.56,23.34-17.66Z" style="fill: #bebde2; stroke: #bebde2; stroke-miterlimit: 10; stroke-width: 3px;"/>
  <path d="M1090.7,3.92h57.45v91.19c10.77-27.58,33.34-40.15,62.06-40.15,34.88,0,54.11,18.63,54.11,54.67v86.36h-60.27v-75.71c0-15.24-9.23-23.46-23.85-23.46-12.05,0-22.57,5.56-29.24,17.66v81.52h-60.27V3.92Z" style="fill: #bebde2; stroke: #bebde2; stroke-miterlimit: 10; stroke-width: 3px;"/>
  <path d="M1378.55,117.85h6.41v-2.66c0-15.24-13.59-23.71-40.78-23.71-17.95,0-34.11,2.66-59.24,10.16v-35.8c18.72-7.26,44.88-12.09,71.29-12.09,56.42,0,87.45,23.46,87.45,66.52v75.71h-56.93v-26.85c-15.13,20.32-37.7,32.41-65.14,32.41-29.75,0-48.47-14.27-48.47-37.25,0-30.48,32.06-46.44,105.4-46.44ZM1345.98,169.37c11.03,0,23.85-4.11,38.98-16.45v-13.3h-5.39c-38.21,0-52.06,5.56-52.06,17.17,0,8.47,7.44,12.58,18.46,12.58Z" style="fill: #bebde2; stroke: #bebde2; stroke-miterlimit: 10; stroke-width: 3px;"/>
  <path d="M1472.03,97.29h-25.39v-38.22h26.41v-22.5l57.7-24.67v47.17h62.32v38.22h-62.32v32.9c0,22.25,15.13,31.69,40.26,31.69,8.72,0,18.72-.97,29.24-4.11l-6.15,36.04c-14.36,5.08-31.8,7.74-48.21,7.74-43.6,0-73.86-19.11-73.86-53.94v-50.31Z" style="fill: #bebde2; stroke: #bebde2; stroke-miterlimit: 10; stroke-width: 3px;"/>
  <path d="M1668.01,1.5v41.61h-57.96V1.5h57.96ZM1670.57,59.07v136.91h-60.52V59.07h60.52Z" style="fill: #bebde2; stroke: #bebde2; stroke-miterlimit: 10; stroke-width: 3px;"/>
  <path d="M1785.57,117.85h6.41v-2.66c0-15.24-13.59-23.71-40.78-23.71-17.95,0-34.11,2.66-59.24,10.16v-35.8c18.72-7.26,44.88-12.09,71.29-12.09,56.42,0,87.45,23.46,87.45,66.52v75.71h-56.93v-26.85c-15.13,20.32-37.7,32.41-65.14,32.41-29.75,0-48.47-14.27-48.47-37.25,0-30.48,32.06-46.44,105.4-46.44ZM1753,169.37c11.03,0,23.85-4.11,38.98-16.45v-13.3h-5.39c-38.21,0-52.06,5.56-52.06,17.17,0,8.47,7.44,12.58,18.46,12.58Z" style="fill: #bebde2; stroke: #bebde2; stroke-miterlimit: 10; stroke-width: 3px;"/>
  <path d="M1839.07,28.01h57.23v14.24h-18.91v34.11h-19.41v-34.11h-18.91v-14.24ZM1901.1,28.01h23.22l11.94,27.69,11.78-27.69h23.55v48.35h-18.25v-26.75l-10.62,26.75h-12.94l-10.45-26.29v26.29h-18.25V28.01Z" style="fill: #bebde2; stroke: #bebde2; stroke-miterlimit: 10; stroke-width: 3px;"/>
</svg>