<?xml version="1.0" encoding="UTF-8"?>
<svg id="Layer_1" data-name="Layer 1" xmlns="http://www.w3.org/2000/svg" viewBox="0 0 1048.66 231.65">
  <defs>
    <style>
      .cls-1 {
        fill: #bebde2;
      }
    </style>
  </defs>
  <path class="cls-1"
    d="M86.86,231.22c-30.7,0-52.85-5.04-66.45-15.12C6.8,206.01,0,184.2,0,150.66h49.15c0,20.84,3.39,32.87,10.17,36.06,6.78,3.2,15.82,4.8,27.12,4.8s20.24-1.14,27.12-3.42c6.87-2.28,10.31-9.28,10.31-21.01s-4.69-19.36-14.05-22.61c-9.37-3.25-22.44-6.23-39.19-8.94-26.46-5.43-44.82-12.29-55.08-20.58C5.27,106.67.14,92.34.14,71.98.14,42.42,7.18,23.03,21.26,13.82,35.33,4.61,56.87,0,85.87,0s50.82,5.26,64.9,15.78c14.08,10.52,21.12,31.87,21.12,64.06h-49.01c0-20.65-3.56-32.5-10.66-35.56-7.11-3.05-16.03-4.58-26.76-4.58-11.49,0-20.69,1.07-27.61,3.2-6.92,2.13-10.38,9.6-10.38,22.39,0,12.12,4.89,19.61,14.69,22.47,9.79,2.86,22.79,5.7,38.98,8.51,27.31,5.43,45.97,12.07,56,19.92,10.03,7.85,15.04,22.1,15.04,42.75,0,28.99-6.78,48.28-20.34,57.88s-35.22,14.4-64.97,14.4Z" />
  <path class="cls-1" d="M235.73,4.51l.14,39.41h-48.73l-.14-39.41h48.73ZM187.14,57.73h48.73v172.47h-48.73V57.73Z" />
  <path class="cls-1"
    d="M275.56,94.52h-26.55v-36.79h42.94v-3.2c-.47,0-.92-.02-1.34-.07-.42-.05-.92-.12-1.48-.22-2.64,0-5.3-.44-7.98-1.31-2.68-.87-5.11-2.23-7.27-4.07-2.17-1.84-3.91-4.22-5.23-7.13-1.32-2.91-1.98-6.45-1.98-10.62,0-12.12,4.57-20.33,13.7-24.65,9.13-4.31,23.3-6.47,42.51-6.47h53.81v36.36h-48.3c-10.92,0-16.38,3.44-16.38,10.32.09,6.98,5.79,10.67,17.09,11.05h47.74v36.79h-52.68v135.68h-48.59V94.52Z" />
  <path class="cls-1"
    d="M465.24,230.2c-21.56,0-36.06-3.64-43.5-10.91-7.44-7.27-11.16-19.39-11.16-36.36v-88.42h-25.99v-36.79h6.5c8,0,14.34-2.81,19-8.43,4.66-5.62,6.99-13.23,6.99-22.83V0h48.73v26.47c0,18.23-7.72,27.58-23.16,28.07v3.2h72.17v36.79h-55.51v78.09c0,7.47,1.98,12.39,5.93,14.76,3.96,2.38,9.13,3.56,15.54,3.56,8,0,19.44-.05,34.32-.15v39.41h-49.86Z" />
  <path class="cls-1" d="M577.53,4.51l.14,39.41h-48.73l-.14-39.41h48.73ZM528.94,57.73h48.73v172.47h-48.73V57.73Z" />
  <path class="cls-1"
    d="M678.09,231.65c-27.59,0-48.8-6.66-63.63-20-14.83-13.33-22.25-36.14-22.25-68.42s7.42-54.8,22.25-67.84c14.83-13.04,36.04-19.56,63.63-19.56s48.77,6.52,63.56,19.56c14.78,13.04,22.17,35.65,22.17,67.84s-7.39,55.09-22.17,68.42c-14.79,13.33-35.97,20-63.56,20ZM678.09,197.77c12.24,0,21.52-2.47,27.82-7.42,6.31-4.94,9.46-20.55,9.46-46.83s-3.16-41.81-9.46-46.61c-6.31-4.8-15.58-7.2-27.82-7.2s-21.52,2.4-27.82,7.2c-6.31,4.8-9.46,20.34-9.46,46.61s3.15,41.88,9.46,46.83c6.31,4.94,15.58,7.42,27.82,7.42Z" />
  <path class="cls-1"
    d="M886.84,139.31c0-22.39-1.96-36.09-5.86-41.08-3.91-4.99-11.04-7.49-21.4-7.49-10.92,0-19.54,3.25-25.85,9.74-3.58,3.78-6.17,9.21-7.77,16.29v113.43h-48.59V57.73h48.59v12.22c0,.97-.19,1.65-.56,2.04l-9.75,13.09,1.7.87c1.98-2.52,4.1-5.09,6.36-7.71,12.9-14.83,29.56-22.25,50-22.25,2.35,0,4.71.1,7.06.29,20.81,1.84,35.1,9.89,42.87,24.14,7.77,14.25,11.65,33.64,11.65,58.17v91.62h-48.45v-90.89Z" />
  <path class="cls-1"
    d="M910.52,27.75v-15.09h60.5v15.09h-21.53v48.29h-17.75V27.75h-21.22ZM978.04,76.04V12.66h26.97l8.54,34.61,8.99-34.61h26.13v63.38h-16.69V31.25l-11.56,44.79h-13.97l-11.4-44.79v44.79h-17Z" />
</svg>